<svg xmlns="http://www.w3.org/2000/svg" width="24" height="24" viewBox="0 0 24 24">
    <g fill="none" fill-rule="evenodd">
        <g fill="#212121">
            <g>
                <g>
                    <g>
                        <path d="M9.5 3.667c-3.212 0-5.833 2.621-5.833 5.833s2.621 5.833 5.833 5.833c1.457 0 2.788-.543 3.812-1.432l.355.355v1.077l5 5 1.666-1.666-5-5h-1.077l-.355-.355c.889-1.024 1.432-2.355 1.432-3.812 0-3.212-2.621-5.833-5.833-5.833zm0 1.666c2.311 0 4.167 1.856 4.167 4.167S11.81 13.667 9.5 13.667 5.333 11.81 5.333 9.5 7.19 5.333 9.5 5.333z" transform="translate(-306 -100) translate(72 80) translate(16 16) translate(218 4)"/>
                    </g>
                </g>
            </g>
        </g>
    </g>
</svg>
