<svg xmlns="http://www.w3.org/2000/svg" xmlns:xlink="http://www.w3.org/1999/xlink" width="163" height="32" viewBox="0 0 163 32">
    <defs>
        <path id="zyaw6c8fca" d="M16 0C.124 0 0 7.163 0 16s.124 16 16 16 16-7.163 16-16"/>
        <path id="rsutm4q8hc" d="M0 32L157.201 32 157.201 0 0 0z"/>
    </defs>
    <g fill="none" fill-rule="evenodd">
        <g>
            <g>
                <g>
                    <g fill="#1A1A1A">
                        <path d="M16 32c15.876 0 16-7.163 16-16S31.876 0 16 0 0 7.163 0 16s.124 16 16 16" transform="translate(-72 -12) translate(72 12)"/>
                        <path d="M16 32c15.876 0 16-7.163 16-16S31.876 0 16 0 0 7.163 0 16s.124 16 16 16" transform="translate(-72 -12) translate(72 12)"/>
                    </g>
                    <g transform="translate(-72 -12) translate(72 12)">
                        <mask id="360535ytkb" fill="#fff">
                            <use xlink:href="#zyaw6c8fca"/>
                        </mask>
                        <path fill="#1A1A1A" d="M16 0C.139 0 0 7.15 0 15.974V16c0 8.837.124 16 16 16s16-7.163 16-16-.124-16-16-16" mask="url(#360535ytkb)"/>
                    </g>
                    <g transform="translate(-72 -12) translate(72 12)">
                        <path fill="#00E6B3" d="M23.523 13.407l-1.647-4.281c-.091-.237-.23-.453-.411-.633l-.413-.413c-.483-.482-1.272-.482-1.755 0l-3.07 3.07s-.602-1.478-1.376-2.252c-1.203-1.204-2.572.06-2.572.06l1.159 1.839.132 2.51c.015.307.145.596.361.813l4.05 4.05c.485.484 1.27.484 1.755 0l3.523-3.524c.325-.324.428-.81.264-1.24zM9.564 19.514c-1.177 1.177-2.354 5.885-2.354 5.885s4.708-1.177 5.885-2.354c.974-.975.974-2.556 0-3.531-.975-.974-2.557-.974-3.53 0zm1.837-3.538l5.264 5.264 1.316-1.316-5.264-5.264-1.316 1.316z"/>
                        <path fill="#FF2E93" d="M24.323 14.207l-1.647-4.281c-.091-.237-.23-.453-.411-.633l-.413-.413c-.483-.482-1.272-.482-1.755 0l-3.07 3.07s-.602-1.478-1.376-2.252c-1.203-1.204-2.572.06-2.572.06l1.159 1.839.132 2.51c.015.307.145.596.361.813l4.05 4.05c.485.484 1.27.484 1.755 0l3.523-3.524c.325-.324.428-.81.264-1.24zm-13.959 6.107c-1.177 1.177-2.354 5.885-2.354 5.885s4.708-1.177 5.885-2.354c.974-.975.974-2.556 0-3.531-.975-.974-2.557-.974-3.53 0zm1.837-3.538l5.264 5.264 1.316-1.316-5.264-5.264-1.316 1.316z"/>
                        <path fill="#FFF" d="M10.364 20.314c-.814.814-1.628 3.318-2.053 4.784 1.466-.425 3.97-1.239 4.784-2.053.837-.837.953-2.12.353-3.084-.964-.6-2.247-.484-3.084.353M21.876 9.126c-.057-.148-.139-.283-.231-.411-.48-.308-1.129-.253-1.547.165l-3.071 3.071s-.205-.501-.528-1.073l-.272.273s-.393-.967-.954-1.746c-1.094-.657-2.194.352-2.194.352l1.159 1.84.132 2.51c.015.306.145.596.361.812l3.25 3.25c.486.485 1.27.485 1.755 0l3.523-3.522c.325-.326.428-.811.264-1.24l-1.647-4.28zM17.982 19.925L13.517 15.46 12.201 16.776 16.666 21.241z"/>
                        <path fill="#00E6B3" d="M81.614 22.07c1.6 0 2.412-.668 2.412-1.694 0-1.004-.764-1.505-2.316-1.505h-4.011v3.2h3.915zM77.7 15.792h3.342c1.505 0 2.365-.669 2.365-1.743 0-1.05-.789-1.576-2.365-1.576H77.7v3.32zm10.267 5.11c0 2.745-2.197 4.512-5.802 4.512h-8.5V9.177h8.022c3.51 0 5.564 1.647 5.564 4.322 0 1.552-.884 3.08-2.245 3.557 1.91.406 2.96 2.006 2.96 3.844z"/>
                        <path fill="#FF2E93" d="M82.814 22.07c1.6 0 2.412-.668 2.412-1.694 0-1.004-.764-1.505-2.316-1.505h-4.011v3.2h3.915zM78.9 15.792h3.342c1.505 0 2.365-.669 2.365-1.743 0-1.05-.789-1.576-2.365-1.576H78.9v3.32zm10.267 5.11c0 2.745-2.197 4.512-5.802 4.512h-8.5V9.177h8.022c3.51 0 5.564 1.647 5.564 4.322 0 1.552-.884 3.08-2.245 3.557 1.91.406 2.96 2.006 2.96 3.844z"/>
                        <path fill="#000" d="M54.035 25.413L50.525 25.413 48.662 19.396 46.8 25.413 43.29 25.413 39.303 13.833 43.362 13.833 45.152 20.017 47.134 13.833 50.191 13.833 52.148 19.993 53.963 13.833 57.998 13.833z"/>
                        <mask id="jj9tgp94ld" fill="#fff">
                            <use xlink:href="#rsutm4q8hc"/>
                        </mask>
                        <path fill="#000" d="M58.545 25.413h3.869v-11.58h-3.869v11.58zm-.357-15.567c0-1.242 1.002-2.197 2.268-2.197 1.241 0 2.268.955 2.268 2.197 0 1.241-1.027 2.172-2.268 2.172-1.266 0-2.268-.93-2.268-2.172zM73.205 25.198c-1.218.382-2.388.574-3.51.574-1.408 0-2.554-.478-3.39-1.41-.86-.955-1.266-2.22-1.266-3.772v-3.438h-2.268v-3.32h2.268V9.894h3.868v3.94h3.94v3.319h-3.94v3.319c0 1.17.597 1.743 1.815 1.743.382 0 1.075-.096 2.053-.287l.43 3.271zM82.814 22.07H77.7v-3.199h5.211c1.552 0 2.316.501 2.316 1.505 0 1.026-.812 1.695-2.412 1.695zM77.7 12.473h4.542c1.576 0 2.365.525 2.365 1.576 0 1.074-.86 1.743-2.365 1.743H77.7v-3.32zM87.966 20.9c0-1.838-1.05-3.438-2.96-3.844 1.36-.477 2.244-2.005 2.244-3.557 0-2.675-2.054-4.322-5.564-4.322h-6.823v16.236h7.3c3.606 0 5.803-1.767 5.803-4.513zM98.614 19.635c0-1.528-1.075-2.722-2.603-2.722-1.552 0-2.627 1.194-2.627 2.722 0 1.6 1.075 2.793 2.627 2.793 1.528 0 2.603-1.193 2.603-2.793m1.886-4.345c1.17 1.122 1.767 2.578 1.767 4.321 0 1.767-.597 3.247-1.767 4.417s-2.674 1.744-4.49 1.744c-1.838 0-3.342-.574-4.536-1.744-1.17-1.17-1.767-2.65-1.767-4.417 0-1.743.597-3.2 1.767-4.321 1.194-1.146 2.698-1.72 4.537-1.72 1.815 0 3.319.574 4.49 1.72M111.577 19.635c0-1.528-1.074-2.722-2.602-2.722-1.552 0-2.627 1.194-2.627 2.722 0 1.6 1.075 2.793 2.627 2.793 1.528 0 2.602-1.193 2.602-2.793m1.887-4.345c1.17 1.122 1.767 2.578 1.767 4.321 0 1.767-.597 3.247-1.767 4.417s-2.675 1.744-4.49 1.744c-1.838 0-3.342-.574-4.536-1.744-1.17-1.17-1.767-2.65-1.767-4.417 0-1.743.597-3.2 1.767-4.321 1.194-1.146 2.698-1.72 4.537-1.72 1.814 0 3.319.574 4.489 1.72M118.81 21.45c.167.978.883 1.456 2.197 1.456 1.027 0 1.671-.31 1.671-.812 0-.43-.382-.692-1.122-.812l-2.34-.406c-2.101-.358-3.414-1.551-3.414-3.485 0-2.388 2.053-3.868 5.181-3.868 1.433 0 2.674.31 3.7.955 1.052.644 1.624 1.647 1.72 3.056h-3.462c-.072-.86-.836-1.29-1.958-1.29-.931 0-1.456.359-1.456.836 0 .454.406.764 1.217.908l2.149.358c2.412.406 3.63 1.623 3.63 3.51 0 1.265-.502 2.244-1.529 2.912-1.003.67-2.316 1.004-3.915 1.004-3.224 0-5.492-1.41-5.707-4.346l3.438.024z" mask="url(#jj9tgp94ld)"/>
                        <path fill="#000" d="M136.693 25.198c-1.218.382-2.388.574-3.51.574-1.409 0-2.555-.478-3.39-1.41-.86-.955-1.266-2.22-1.266-3.772v-3.438h-2.268v-3.32h2.268V9.894h3.868v3.94h3.94v3.319h-3.94v3.319c0 1.17.597 1.743 1.814 1.743.382 0 1.075-.096 2.054-.287l.43 3.271z" mask="url(#jj9tgp94ld)"/>
                        <path fill="#000" d="M140.273 18.49h4.704c-.215-1.29-.979-1.935-2.292-1.935-1.29 0-2.102.644-2.412 1.934m8.262 2.268h-8.238c.358 1.242 1.242 1.863 2.603 1.863.835 0 1.409-.287 1.767-.836h3.844c-.573 2.387-2.794 3.892-5.66 3.892-1.886 0-3.414-.573-4.584-1.695-1.17-1.123-1.742-2.58-1.742-4.37 0-1.767.573-3.223 1.695-4.346 1.146-1.122 2.65-1.695 4.489-1.695 1.695 0 3.104.55 4.226 1.624 1.122 1.074 1.671 2.46 1.671 4.178 0 .621-.024 1.075-.071 1.385M157.201 17.32c-1.743.07-3.056.548-3.987 1.456v6.637h-3.892v-11.58h3.892v1.242c1.122-.955 2.435-1.433 3.987-1.433v3.677z" mask="url(#jj9tgp94ld)"/>
                    </g>
                </g>
            </g>
        </g>
    </g>
</svg>
