<svg xmlns="http://www.w3.org/2000/svg" width="24" height="24" viewBox="0 0 24 24">
    <g fill="none" fill-rule="evenodd">
        <g fill="#212121">
            <g>
                <g>
                    <g>
                        <g>
                            <path d="M7 10.333c-.92 0-1.667.747-1.667 1.667S6.08 13.667 7 13.667 8.667 12.92 8.667 12 7.92 10.333 7 10.333zm5 0c-.92 0-1.667.747-1.667 1.667s.747 1.667 1.667 1.667 1.667-.747 1.667-1.667-.747-1.667-1.667-1.667zm5 0c-.92 0-1.667.747-1.667 1.667s.747 1.667 1.667 1.667 1.667-.747 1.667-1.667-.747-1.667-1.667-1.667z" transform="translate(-1310 -192) translate(72 80) translate(0 104) translate(1204) translate(34 8)"/>
                        </g>
                    </g>
                </g>
            </g>
        </g>
    </g>
</svg>
